<svg width="653" height="90" viewBox="0 0 653 90" fill="none" xmlns="http://www.w3.org/2000/svg">
<g opacity="0.3">
<path d="M4.51168 87.2105C4.51168 86.0251 3.54641 85.0641 2.35569 85.0641C1.16497 85.0641 0.199707 86.0251 0.199707 87.2105C0.199707 88.396 1.16497 89.3569 2.35569 89.3569C3.54641 89.3569 4.51168 88.396 4.51168 87.2105Z" fill="#9CB1B7"/>
<path d="M342.242 87.2105C342.242 86.0251 341.277 85.0641 340.086 85.0641C338.895 85.0641 337.93 86.0251 337.93 87.2105C337.93 88.396 338.895 89.3569 340.086 89.3569C341.277 89.3569 342.242 88.396 342.242 87.2105Z" fill="#9CB1B7"/>
<path d="M173.377 87.2105C173.377 86.0251 172.412 85.0641 171.221 85.0641C170.03 85.0641 169.065 86.0251 169.065 87.2105C169.065 88.396 170.03 89.3569 171.221 89.3569C172.412 89.3569 173.377 88.396 173.377 87.2105Z" fill="#9CB1B7"/>
<path d="M511.108 87.2105C511.108 86.0251 510.142 85.0641 508.952 85.0641C507.761 85.0641 506.796 86.0251 506.796 87.2105C506.796 88.396 507.761 89.3569 508.952 89.3569C510.142 89.3569 511.108 88.396 511.108 87.2105Z" fill="#9CB1B7"/>
<path d="M2.3552 56.7775C3.58719 56.7775 4.51119 57.774 4.51119 58.9239C4.51119 60.1504 3.5102 61.0703 2.3552 61.0703C1.20021 61.0703 0.199219 60.0738 0.199219 58.9239C0.199219 57.774 1.20021 56.7775 2.3552 56.7775Z" fill="#6A8994"/>
<path d="M340.086 56.7775C341.318 56.7775 342.242 57.774 342.242 58.9239C342.242 60.1504 341.241 61.0703 340.086 61.0703C338.931 61.0703 337.93 60.0738 337.93 58.9239C337.93 57.774 338.931 56.7775 340.086 56.7775Z" fill="#6A8994"/>
<path d="M171.22 56.7775C172.452 56.7775 173.376 57.774 173.376 58.9239C173.376 60.1504 172.375 61.0703 171.22 61.0703C170.065 61.0703 169.064 60.0738 169.064 58.9239C169.064 57.774 170.065 56.7775 171.22 56.7775Z" fill="#6A8994"/>
<path d="M508.951 56.7775C510.183 56.7775 511.107 57.774 511.107 58.9239C511.107 60.1504 510.106 61.0703 508.951 61.0703C507.796 61.0703 506.795 60.0738 506.795 58.9239C506.795 57.774 507.796 56.7775 508.951 56.7775Z" fill="#6A8994"/>
<path d="M4.51119 30.7139C4.51119 29.5285 3.54592 28.5675 2.3552 28.5675C1.16448 28.5675 0.199219 29.5285 0.199219 30.7139C0.199219 31.8994 1.16448 32.8604 2.3552 32.8604C3.54592 32.8604 4.51119 31.8994 4.51119 30.7139Z" fill="#396270"/>
<path d="M342.242 30.7144C342.242 29.529 341.276 28.568 340.086 28.568C338.895 28.568 337.93 29.529 337.93 30.7144C337.93 31.8999 338.895 32.8608 340.086 32.8608C341.276 32.8608 342.242 31.8999 342.242 30.7144Z" fill="#396270"/>
<path d="M173.376 30.7144C173.376 29.529 172.411 28.568 171.22 28.568C170.03 28.568 169.064 29.529 169.064 30.7144C169.064 31.8999 170.03 32.8608 171.22 32.8608C172.411 32.8608 173.376 31.8999 173.376 30.7144Z" fill="#396270"/>
<path d="M511.107 30.7144C511.107 29.529 510.142 28.568 508.951 28.568C507.76 28.568 506.795 29.529 506.795 30.7144C506.795 31.8999 507.76 32.8608 508.951 32.8608C510.142 32.8608 511.107 31.8999 511.107 30.7144Z" fill="#396270"/>
<path d="M4.51119 2.50397C4.51119 1.31854 3.54592 0.35757 2.3552 0.35757C1.16448 0.35757 0.199219 1.31854 0.199219 2.50397C0.199219 3.68941 1.16448 4.65039 2.3552 4.65039C3.54592 4.65039 4.51119 3.68941 4.51119 2.50397Z" fill="#063544"/>
<path d="M342.242 2.50446C342.242 1.31903 341.276 0.358058 340.086 0.358058C338.895 0.358058 337.93 1.31903 337.93 2.50446C337.93 3.68989 338.895 4.65088 340.086 4.65088C341.276 4.65088 342.242 3.68989 342.242 2.50446Z" fill="#063544"/>
<path d="M173.376 2.50446C173.376 1.31903 172.411 0.358058 171.22 0.358058C170.03 0.358058 169.064 1.31903 169.064 2.50446C169.064 3.68989 170.03 4.65088 171.22 4.65088C172.411 4.65088 173.376 3.68989 173.376 2.50446Z" fill="#063544"/>
<path d="M511.107 2.50446C511.107 1.31903 510.142 0.358058 508.951 0.358058C507.76 0.358058 506.795 1.31903 506.795 2.50446C506.795 3.68989 507.76 4.65088 508.951 4.65088C510.142 4.65088 511.107 3.68989 511.107 2.50446Z" fill="#063544"/>
<path d="M32.6162 87.211C32.6162 86.0256 31.6509 85.0646 30.4602 85.0646C29.2695 85.0646 28.3042 86.0256 28.3042 87.211C28.3042 88.3964 29.2695 89.3574 30.4602 89.3574C31.6509 89.3574 32.6162 88.3964 32.6162 87.211Z" fill="#9CB1B7"/>
<path d="M370.347 87.211C370.347 86.0256 369.382 85.0646 368.191 85.0646C367 85.0646 366.035 86.0256 366.035 87.211C366.035 88.3964 367 89.3574 368.191 89.3574C369.382 89.3574 370.347 88.3964 370.347 87.211Z" fill="#9CB1B7"/>
<path d="M201.481 87.211C201.481 86.0256 200.516 85.0646 199.325 85.0646C198.135 85.0646 197.169 86.0256 197.169 87.211C197.169 88.3964 198.135 89.3574 199.325 89.3574C200.516 89.3574 201.481 88.3964 201.481 87.211Z" fill="#9CB1B7"/>
<path d="M539.212 87.211C539.212 86.0256 538.247 85.0646 537.056 85.0646C535.865 85.0646 534.9 86.0256 534.9 87.211C534.9 88.3964 535.865 89.3574 537.056 89.3574C538.247 89.3574 539.212 88.3964 539.212 87.211Z" fill="#9CB1B7"/>
<path d="M30.4602 56.778C31.6922 56.778 32.6162 57.7745 32.6162 58.9244C32.6162 60.1509 31.6152 61.0708 30.4602 61.0708C29.2282 61.0708 28.3042 60.0742 28.3042 58.9244C28.3042 57.7745 29.3052 56.778 30.4602 56.778Z" fill="#6A8994"/>
<path d="M368.191 56.778C369.423 56.778 370.347 57.7745 370.347 58.9244C370.347 60.1509 369.346 61.0708 368.191 61.0708C366.959 61.0708 366.035 60.0742 366.035 58.9244C366.035 57.7745 367.036 56.778 368.191 56.778Z" fill="#6A8994"/>
<path d="M199.325 56.778C200.557 56.778 201.481 57.7745 201.481 58.9244C201.481 60.1509 200.48 61.0708 199.325 61.0708C198.093 61.0708 197.169 60.0742 197.169 58.9244C197.169 57.7745 198.17 56.778 199.325 56.778Z" fill="#6A8994"/>
<path d="M537.056 56.778C538.288 56.778 539.212 57.7745 539.212 58.9244C539.212 60.1509 538.211 61.0708 537.056 61.0708C535.824 61.0708 534.9 60.0742 534.9 58.9244C534.9 57.7745 535.901 56.778 537.056 56.778Z" fill="#6A8994"/>
<path d="M32.6162 30.7139C32.6162 29.5285 31.6509 28.5675 30.4602 28.5675C29.2695 28.5675 28.3042 29.5285 28.3042 30.7139C28.3042 31.8994 29.2695 32.8604 30.4602 32.8604C31.6509 32.8604 32.6162 31.8994 32.6162 30.7139Z" fill="#396270"/>
<path d="M370.347 30.7139C370.347 29.5285 369.382 28.5675 368.191 28.5675C367 28.5675 366.035 29.5285 366.035 30.7139C366.035 31.8994 367 32.8604 368.191 32.8604C369.382 32.8604 370.347 31.8994 370.347 30.7139Z" fill="#396270"/>
<path d="M201.481 30.7139C201.481 29.5285 200.516 28.5675 199.325 28.5675C198.135 28.5675 197.169 29.5285 197.169 30.7139C197.169 31.8994 198.135 32.8604 199.325 32.8604C200.516 32.8604 201.481 31.8994 201.481 30.7139Z" fill="#396270"/>
<path d="M539.212 30.7139C539.212 29.5285 538.247 28.5675 537.056 28.5675C535.865 28.5675 534.9 29.5285 534.9 30.7139C534.9 31.8994 535.865 32.8604 537.056 32.8604C538.247 32.8604 539.212 31.8994 539.212 30.7139Z" fill="#396270"/>
<path d="M32.6162 2.50397C32.6162 1.31854 31.6509 0.35757 30.4602 0.35757C29.2695 0.35757 28.3042 1.31854 28.3042 2.50397C28.3042 3.68941 29.2695 4.65039 30.4602 4.65039C31.6509 4.65039 32.6162 3.68941 32.6162 2.50397Z" fill="#063544"/>
<path d="M370.347 2.50397C370.347 1.31854 369.382 0.35757 368.191 0.35757C367 0.35757 366.035 1.31854 366.035 2.50397C366.035 3.68941 367 4.65039 368.191 4.65039C369.382 4.65039 370.347 3.68941 370.347 2.50397Z" fill="#063544"/>
<path d="M201.481 2.50397C201.481 1.31854 200.516 0.35757 199.325 0.35757C198.135 0.35757 197.169 1.31854 197.169 2.50397C197.169 3.68941 198.135 4.65039 199.325 4.65039C200.516 4.65039 201.481 3.68941 201.481 2.50397Z" fill="#063544"/>
<path d="M539.212 2.50397C539.212 1.31854 538.247 0.35757 537.056 0.35757C535.865 0.35757 534.9 1.31854 534.9 2.50397C534.9 3.68941 535.865 4.65039 537.056 4.65039C538.247 4.65039 539.212 3.68941 539.212 2.50397Z" fill="#063544"/>
<path d="M60.7207 87.211C60.7207 86.0256 59.7554 85.0646 58.5647 85.0646C57.374 85.0646 56.4087 86.0256 56.4087 87.211C56.4087 88.3964 57.374 89.3574 58.5647 89.3574C59.7554 89.3574 60.7207 88.3964 60.7207 87.211Z" fill="#9CB1B7"/>
<path d="M398.451 87.211C398.451 86.0256 397.486 85.0646 396.295 85.0646C395.105 85.0646 394.139 86.0256 394.139 87.211C394.139 88.3964 395.105 89.3574 396.295 89.3574C397.486 89.3574 398.451 88.3964 398.451 87.211Z" fill="#9CB1B7"/>
<path d="M229.586 87.211C229.586 86.0256 228.621 85.0646 227.43 85.0646C226.239 85.0646 225.274 86.0256 225.274 87.211C225.274 88.3964 226.239 89.3574 227.43 89.3574C228.621 89.3574 229.586 88.3964 229.586 87.211Z" fill="#9CB1B7"/>
<path d="M567.317 87.211C567.317 86.0256 566.352 85.0646 565.161 85.0646C563.97 85.0646 563.005 86.0256 563.005 87.211C563.005 88.3964 563.97 89.3574 565.161 89.3574C566.352 89.3574 567.317 88.3964 567.317 87.211Z" fill="#9CB1B7"/>
<path d="M117.421 87.211C117.421 86.0256 116.456 85.0646 115.265 85.0646C114.074 85.0646 113.109 86.0256 113.109 87.211C113.109 88.3964 114.074 89.3574 115.265 89.3574C116.456 89.3574 117.421 88.3964 117.421 87.211Z" fill="#9CB1B7"/>
<path d="M455.152 87.211C455.152 86.0256 454.187 85.0646 452.996 85.0646C451.805 85.0646 450.84 86.0256 450.84 87.211C450.84 88.3964 451.805 89.3574 452.996 89.3574C454.187 89.3574 455.152 88.3964 455.152 87.211Z" fill="#9CB1B7"/>
<path d="M286.287 87.211C286.287 86.0256 285.321 85.0646 284.131 85.0646C282.94 85.0646 281.975 86.0256 281.975 87.211C281.975 88.3964 282.94 89.3574 284.131 89.3574C285.321 89.3574 286.287 88.3964 286.287 87.211Z" fill="#9CB1B7"/>
<path d="M624.017 87.211C624.017 86.0256 623.052 85.0646 621.861 85.0646C620.67 85.0646 619.705 86.0256 619.705 87.211C619.705 88.3964 620.67 89.3574 621.861 89.3574C623.052 89.3574 624.017 88.3964 624.017 87.211Z" fill="#9CB1B7"/>
<path d="M58.5647 56.778C59.7967 56.778 60.7207 57.7745 60.7207 58.9244C60.7207 60.1509 59.7197 61.0708 58.5647 61.0708C57.3327 61.0708 56.4087 60.0742 56.4087 58.9244C56.4087 57.7745 57.4097 56.778 58.5647 56.778Z" fill="#6A8994"/>
<path d="M396.295 56.778C397.527 56.778 398.451 57.7745 398.451 58.9244C398.451 60.1509 397.45 61.0708 396.295 61.0708C395.063 61.0708 394.139 60.0742 394.139 58.9244C394.139 57.7745 395.14 56.778 396.295 56.778Z" fill="#6A8994"/>
<path d="M227.43 56.778C228.662 56.778 229.586 57.7745 229.586 58.9244C229.586 60.1509 228.585 61.0708 227.43 61.0708C226.198 61.0708 225.274 60.0742 225.274 58.9244C225.274 57.7745 226.275 56.778 227.43 56.778Z" fill="#6A8994"/>
<path d="M565.161 56.778C566.393 56.778 567.317 57.7745 567.317 58.9244C567.317 60.1509 566.316 61.0708 565.161 61.0708C563.929 61.0708 563.005 60.0742 563.005 58.9244C563.005 57.7745 564.006 56.778 565.161 56.778Z" fill="#6A8994"/>
<path d="M115.265 56.778C116.497 56.778 117.421 57.7745 117.421 58.9244C117.421 60.1509 116.42 61.0708 115.265 61.0708C114.033 61.0708 113.109 60.0742 113.109 58.9244C113.109 57.7745 114.11 56.778 115.265 56.778Z" fill="#6A8994"/>
<path d="M452.996 56.778C454.228 56.778 455.152 57.7745 455.152 58.9244C455.152 60.1509 454.151 61.0708 452.996 61.0708C451.764 61.0708 450.84 60.0742 450.84 58.9244C450.84 57.7745 451.841 56.778 452.996 56.778Z" fill="#6A8994"/>
<path d="M284.131 56.778C285.363 56.778 286.287 57.7745 286.287 58.9244C286.287 60.1509 285.286 61.0708 284.131 61.0708C282.899 61.0708 281.975 60.0742 281.975 58.9244C281.975 57.7745 282.976 56.778 284.131 56.778Z" fill="#6A8994"/>
<path d="M621.861 56.778C623.093 56.778 624.017 57.7745 624.017 58.9244C624.017 60.1509 623.016 61.0708 621.861 61.0708C620.629 61.0708 619.705 60.0742 619.705 58.9244C619.705 57.7745 620.706 56.778 621.861 56.778Z" fill="#6A8994"/>
<path d="M60.7211 30.7144C60.7211 29.529 59.7559 28.568 58.5652 28.568C57.3744 28.568 56.4092 29.529 56.4092 30.7144C56.4092 31.8999 57.3745 32.8608 58.5652 32.8608C59.7559 32.8608 60.7211 31.8999 60.7211 30.7144Z" fill="#396270"/>
<path d="M398.452 30.7144C398.452 29.529 397.487 28.568 396.296 28.568C395.105 28.568 394.14 29.529 394.14 30.7144C394.14 31.8999 395.105 32.8608 396.296 32.8608C397.487 32.8608 398.452 31.8999 398.452 30.7144Z" fill="#396270"/>
<path d="M229.587 30.7144C229.587 29.529 228.621 28.568 227.431 28.568C226.24 28.568 225.275 29.529 225.275 30.7144C225.275 31.8999 226.24 32.8608 227.431 32.8608C228.621 32.8608 229.587 31.8999 229.587 30.7144Z" fill="#396270"/>
<path d="M567.317 30.7144C567.317 29.529 566.352 28.568 565.161 28.568C563.971 28.568 563.005 29.529 563.005 30.7144C563.005 31.8999 563.971 32.8608 565.161 32.8608C566.352 32.8608 567.317 31.8999 567.317 30.7144Z" fill="#396270"/>
<path d="M117.422 30.7144C117.422 29.529 116.456 28.568 115.266 28.568C114.075 28.568 113.11 29.529 113.11 30.7144C113.11 31.8999 114.075 32.8608 115.266 32.8608C116.456 32.8608 117.422 31.8999 117.422 30.7144Z" fill="#396270"/>
<path d="M455.152 30.7144C455.152 29.529 454.187 28.568 452.996 28.568C451.806 28.568 450.84 29.529 450.84 30.7144C450.84 31.8999 451.806 32.8608 452.996 32.8608C454.187 32.8608 455.152 31.8999 455.152 30.7144Z" fill="#396270"/>
<path d="M286.287 30.7144C286.287 29.529 285.322 28.568 284.131 28.568C282.94 28.568 281.975 29.529 281.975 30.7144C281.975 31.8999 282.94 32.8608 284.131 32.8608C285.322 32.8608 286.287 31.8999 286.287 30.7144Z" fill="#396270"/>
<path d="M624.018 30.7144C624.018 29.529 623.052 28.568 621.862 28.568C620.671 28.568 619.706 29.529 619.706 30.7144C619.706 31.8999 620.671 32.8608 621.862 32.8608C623.052 32.8608 624.018 31.8999 624.018 30.7144Z" fill="#396270"/>
<path d="M60.7207 2.50397C60.7207 1.31854 59.7554 0.35757 58.5647 0.35757C57.374 0.35757 56.4087 1.31854 56.4087 2.50397C56.4087 3.68941 57.374 4.65039 58.5647 4.65039C59.7554 4.65039 60.7207 3.68941 60.7207 2.50397Z" fill="#063544"/>
<path d="M398.451 2.50397C398.451 1.31854 397.486 0.35757 396.295 0.35757C395.105 0.35757 394.139 1.31854 394.139 2.50397C394.139 3.68941 395.105 4.65039 396.295 4.65039C397.486 4.65039 398.451 3.68941 398.451 2.50397Z" fill="#063544"/>
<path d="M229.586 2.50397C229.586 1.31854 228.621 0.35757 227.43 0.35757C226.239 0.35757 225.274 1.31854 225.274 2.50397C225.274 3.68941 226.239 4.65039 227.43 4.65039C228.621 4.65039 229.586 3.68941 229.586 2.50397Z" fill="#063544"/>
<path d="M567.317 2.50397C567.317 1.31854 566.352 0.35757 565.161 0.35757C563.97 0.35757 563.005 1.31854 563.005 2.50397C563.005 3.68941 563.97 4.65039 565.161 4.65039C566.352 4.65039 567.317 3.68941 567.317 2.50397Z" fill="#063544"/>
<path d="M117.421 2.50397C117.421 1.31854 116.456 0.35757 115.265 0.35757C114.074 0.35757 113.109 1.31854 113.109 2.50397C113.109 3.68941 114.074 4.65039 115.265 4.65039C116.456 4.65039 117.421 3.68941 117.421 2.50397Z" fill="#063544"/>
<path d="M455.152 2.50397C455.152 1.31854 454.187 0.35757 452.996 0.35757C451.805 0.35757 450.84 1.31854 450.84 2.50397C450.84 3.68941 451.805 4.65039 452.996 4.65039C454.187 4.65039 455.152 3.68941 455.152 2.50397Z" fill="#063544"/>
<path d="M286.287 2.50397C286.287 1.31854 285.321 0.35757 284.131 0.35757C282.94 0.35757 281.975 1.31854 281.975 2.50397C281.975 3.68941 282.94 4.65039 284.131 4.65039C285.321 4.65039 286.287 3.68941 286.287 2.50397Z" fill="#063544"/>
<path d="M624.017 2.50397C624.017 1.31854 623.052 0.35757 621.861 0.35757C620.67 0.35757 619.705 1.31854 619.705 2.50397C619.705 3.68941 620.67 4.65039 621.861 4.65039C623.052 4.65039 624.017 3.68941 624.017 2.50397Z" fill="#063544"/>
<path d="M88.9028 87.2105C88.9028 86.0251 87.9375 85.0641 86.7468 85.0641C85.5561 85.0641 84.5908 86.0251 84.5908 87.2105C84.5908 88.396 85.5561 89.3569 86.7468 89.3569C87.9375 89.3569 88.9028 88.396 88.9028 87.2105Z" fill="#9CB1B7"/>
<path d="M426.634 87.2105C426.634 86.0251 425.668 85.0641 424.478 85.0641C423.287 85.0641 422.322 86.0251 422.322 87.2105C422.322 88.396 423.287 89.3569 424.478 89.3569C425.668 89.3569 426.634 88.396 426.634 87.2105Z" fill="#9CB1B7"/>
<path d="M257.768 87.2105C257.768 86.0251 256.803 85.0641 255.612 85.0641C254.421 85.0641 253.456 86.0251 253.456 87.2105C253.456 88.396 254.421 89.3569 255.612 89.3569C256.803 89.3569 257.768 88.396 257.768 87.2105Z" fill="#9CB1B7"/>
<path d="M595.499 87.2105C595.499 86.0251 594.533 85.0641 593.343 85.0641C592.152 85.0641 591.187 86.0251 591.187 87.2105C591.187 88.396 592.152 89.3569 593.343 89.3569C594.533 89.3569 595.499 88.396 595.499 87.2105Z" fill="#9CB1B7"/>
<path d="M145.603 87.2105C145.603 86.0251 144.638 85.0641 143.447 85.0641C142.257 85.0641 141.291 86.0251 141.291 87.2105C141.291 88.396 142.257 89.3569 143.447 89.3569C144.638 89.3569 145.603 88.396 145.603 87.2105Z" fill="#9CB1B7"/>
<path d="M483.334 87.2105C483.334 86.0251 482.369 85.0641 481.178 85.0641C479.987 85.0641 479.022 86.0251 479.022 87.2105C479.022 88.396 479.987 89.3569 481.178 89.3569C482.369 89.3569 483.334 88.396 483.334 87.2105Z" fill="#9CB1B7"/>
<path d="M314.469 87.2105C314.469 86.0251 313.503 85.0641 312.313 85.0641C311.122 85.0641 310.157 86.0251 310.157 87.2105C310.157 88.396 311.122 89.3569 312.313 89.3569C313.503 89.3569 314.469 88.396 314.469 87.2105Z" fill="#9CB1B7"/>
<path d="M652.199 87.2105C652.199 86.0251 651.234 85.0641 650.043 85.0641C648.852 85.0641 647.887 86.0251 647.887 87.2105C647.887 88.396 648.852 89.3569 650.043 89.3569C651.234 89.3569 652.199 88.396 652.199 87.2105Z" fill="#9CB1B7"/>
<path d="M86.7466 56.778C87.9786 56.778 88.9026 57.7745 88.9026 58.9244C88.9026 60.1509 87.9016 61.0708 86.7466 61.0708C85.5146 61.0708 84.5906 60.0742 84.5906 58.9244C84.5136 57.7745 85.5146 56.778 86.7466 56.778Z" fill="#6A8994"/>
<path d="M424.477 56.778C425.709 56.778 426.633 57.7745 426.633 58.9244C426.633 60.1509 425.632 61.0708 424.477 61.0708C423.245 61.0708 422.321 60.0742 422.321 58.9244C422.244 57.7745 423.245 56.778 424.477 56.778Z" fill="#6A8994"/>
<path d="M255.612 56.778C256.844 56.778 257.768 57.7745 257.768 58.9244C257.768 60.1509 256.767 61.0708 255.612 61.0708C254.38 61.0708 253.456 60.0742 253.456 58.9244C253.379 57.7745 254.38 56.778 255.612 56.778Z" fill="#6A8994"/>
<path d="M593.343 56.778C594.575 56.778 595.499 57.7745 595.499 58.9244C595.499 60.1509 594.498 61.0708 593.343 61.0708C592.111 61.0708 591.187 60.0742 591.187 58.9244C591.11 57.7745 592.111 56.778 593.343 56.778Z" fill="#6A8994"/>
<path d="M143.447 56.778C144.679 56.778 145.603 57.7745 145.603 58.9244C145.603 60.1509 144.602 61.0708 143.447 61.0708C142.215 61.0708 141.291 60.0742 141.291 58.9244C141.214 57.7745 142.215 56.778 143.447 56.778Z" fill="#6A8994"/>
<path d="M481.178 56.778C482.41 56.778 483.334 57.7745 483.334 58.9244C483.334 60.1509 482.333 61.0708 481.178 61.0708C479.946 61.0708 479.022 60.0742 479.022 58.9244C478.945 57.7745 479.946 56.778 481.178 56.778Z" fill="#6A8994"/>
<path d="M312.312 56.778C313.544 56.778 314.468 57.7745 314.468 58.9244C314.468 60.1509 313.467 61.0708 312.312 61.0708C311.081 61.0708 310.157 60.0742 310.157 58.9244C310.08 57.7745 311.081 56.778 312.312 56.778Z" fill="#6A8994"/>
<path d="M650.043 56.778C651.275 56.778 652.199 57.7745 652.199 58.9244C652.199 60.1509 651.198 61.0708 650.043 61.0708C648.811 61.0708 647.887 60.0742 647.887 58.9244C647.81 57.7745 648.811 56.778 650.043 56.778Z" fill="#6A8994"/>
<path d="M88.9028 30.7144C88.9028 29.529 87.9375 28.568 86.7468 28.568C85.5561 28.568 84.5908 29.529 84.5908 30.7144C84.5908 31.8999 85.5561 32.8608 86.7468 32.8608C87.9375 32.8608 88.9028 31.8999 88.9028 30.7144Z" fill="#396270"/>
<path d="M426.634 30.7144C426.634 29.529 425.668 28.568 424.478 28.568C423.287 28.568 422.322 29.529 422.322 30.7144C422.322 31.8999 423.287 32.8608 424.478 32.8608C425.668 32.8608 426.634 31.8999 426.634 30.7144Z" fill="#396270"/>
<path d="M257.768 30.7144C257.768 29.529 256.803 28.568 255.612 28.568C254.421 28.568 253.456 29.529 253.456 30.7144C253.456 31.8999 254.421 32.8608 255.612 32.8608C256.803 32.8608 257.768 31.8999 257.768 30.7144Z" fill="#396270"/>
<path d="M595.499 30.7144C595.499 29.529 594.533 28.568 593.343 28.568C592.152 28.568 591.187 29.529 591.187 30.7144C591.187 31.8999 592.152 32.8608 593.343 32.8608C594.533 32.8608 595.499 31.8999 595.499 30.7144Z" fill="#396270"/>
<path d="M145.603 30.7144C145.603 29.529 144.638 28.568 143.447 28.568C142.257 28.568 141.291 29.529 141.291 30.7144C141.291 31.8999 142.257 32.8608 143.447 32.8608C144.638 32.8608 145.603 31.8999 145.603 30.7144Z" fill="#396270"/>
<path d="M483.334 30.7144C483.334 29.529 482.369 28.568 481.178 28.568C479.987 28.568 479.022 29.529 479.022 30.7144C479.022 31.8999 479.987 32.8608 481.178 32.8608C482.369 32.8608 483.334 31.8999 483.334 30.7144Z" fill="#396270"/>
<path d="M314.469 30.7144C314.469 29.529 313.503 28.568 312.313 28.568C311.122 28.568 310.157 29.529 310.157 30.7144C310.157 31.8999 311.122 32.8608 312.313 32.8608C313.503 32.8608 314.469 31.8999 314.469 30.7144Z" fill="#396270"/>
<path d="M652.199 30.7144C652.199 29.529 651.234 28.568 650.043 28.568C648.852 28.568 647.887 29.529 647.887 30.7144C647.887 31.8999 648.852 32.8608 650.043 32.8608C651.234 32.8608 652.199 31.8999 652.199 30.7144Z" fill="#396270"/>
<path d="M88.9028 2.50446C88.9028 1.31903 87.9375 0.358058 86.7468 0.358058C85.5561 0.358058 84.5908 1.31903 84.5908 2.50446C84.5908 3.68989 85.5561 4.65088 86.7468 4.65088C87.9375 4.65088 88.9028 3.68989 88.9028 2.50446Z" fill="#063544"/>
<path d="M426.634 2.50446C426.634 1.31903 425.668 0.358058 424.478 0.358058C423.287 0.358058 422.322 1.31903 422.322 2.50446C422.322 3.68989 423.287 4.65088 424.478 4.65088C425.668 4.65088 426.634 3.68989 426.634 2.50446Z" fill="#063544"/>
<path d="M257.768 2.50446C257.768 1.31903 256.803 0.358058 255.612 0.358058C254.421 0.358058 253.456 1.31903 253.456 2.50446C253.456 3.68989 254.421 4.65088 255.612 4.65088C256.803 4.65088 257.768 3.68989 257.768 2.50446Z" fill="#063544"/>
<path d="M595.499 2.50446C595.499 1.31903 594.533 0.358058 593.343 0.358058C592.152 0.358058 591.187 1.31903 591.187 2.50446C591.187 3.68989 592.152 4.65088 593.343 4.65088C594.533 4.65088 595.499 3.68989 595.499 2.50446Z" fill="#063544"/>
<path d="M145.603 2.50446C145.603 1.31903 144.638 0.358058 143.447 0.358058C142.257 0.358058 141.291 1.31903 141.291 2.50446C141.291 3.68989 142.257 4.65088 143.447 4.65088C144.638 4.65088 145.603 3.68989 145.603 2.50446Z" fill="#063544"/>
<path d="M483.334 2.50446C483.334 1.31903 482.369 0.358058 481.178 0.358058C479.987 0.358058 479.022 1.31903 479.022 2.50446C479.022 3.68989 479.987 4.65088 481.178 4.65088C482.369 4.65088 483.334 3.68989 483.334 2.50446Z" fill="#063544"/>
<path d="M314.469 2.50446C314.469 1.31903 313.503 0.358058 312.313 0.358058C311.122 0.358058 310.157 1.31903 310.157 2.50446C310.157 3.68989 311.122 4.65088 312.313 4.65088C313.503 4.65088 314.469 3.68989 314.469 2.50446Z" fill="#063544"/>
<path d="M652.199 2.50446C652.199 1.31903 651.234 0.358058 650.043 0.358058C648.852 0.358058 647.887 1.31903 647.887 2.50446C647.887 3.68989 648.852 4.65088 650.043 4.65088C651.234 4.65088 652.199 3.68989 652.199 2.50446Z" fill="#063544"/>
</g>
</svg>
