<svg width="116" height="83" viewBox="0 0 116 83" fill="none" xmlns="http://www.w3.org/2000/svg">
<g opacity="0.4">
<path d="M46.8101 0.903473C24.2905 5.19965 9.49153 17.1509 3.24422 36.079C1.03481 42.733 -0.247468 51.5192 0.201447 56.7845C1.00199 66.508 5.74314 74.2919 13.8154 79.0727C17.8521 81.4955 22.3682 82.6904 27.4622 82.6904C38.0978 82.6904 47.3551 76.8436 51.9357 67.2821C54.1463 62.6952 54.6268 60.4342 54.6268 55.1689C54.6268 50.2274 54.0502 47.4488 52.0646 43.3145C48.0607 34.8841 39.2828 28.5527 30.5694 27.8104C29.2883 27.7135 28.2311 27.4878 28.2311 27.2939C28.2311 26.6474 29.8967 23.7081 31.2422 21.9648C32.78 19.9615 36.4323 16.3118 38.9629 14.2447C41.3973 12.2425 47.259 8.49476 50.719 6.68647C52.4162 5.81423 54.0502 4.78126 54.3385 4.39359C55.0113 3.39253 54.9468 2.13264 54.1463 1.09848C53.5696 0.355072 53.2813 0.258156 51.6802 0.291252C50.6862 0.29007 48.4768 0.580811 46.8101 0.903473Z" fill="#FB5E91"/>
<path d="M109.776 0.480888C81.1355 5.03489 63.964 22.1871 61.0487 49.2251C59.6714 62.1779 63.8678 72.1275 73.3826 78.3941C77.8041 81.3017 82.5445 82.6904 88.1511 82.6904C91.9631 82.6904 94.5583 82.2058 98.1148 80.849C104.459 78.426 110.321 72.7409 113.172 66.2485C115.414 61.1768 115.991 53.7803 114.613 48.5467C111.635 37.2415 102.087 28.8426 91.0992 27.8084C88.9201 27.6146 88.9201 27.6146 89.1123 26.7754C89.4323 25.5155 90.6819 23.4802 92.7649 20.8634C96.673 15.9855 103.113 11.1077 112.116 6.22983C115.062 4.61413 115.768 3.77495 115.384 2.28925C115.031 0.835472 114.102 0.25396 112.276 0.287056C111.345 0.31897 110.225 0.415886 109.776 0.480888Z" fill="#FB5E91"/>
</g>
</svg>
